PathFileType	4	(X/Y/Z)	 s07c0302.trc
DataRate	CameraRate	NumFrames	NumMarkers	Units	OrigDataRate	OrigDataStartFrame	OrigNumFrames
200	200	4	48	mm	200	501	2000
Frame#	Time	racr			lacr			c7			jug			rlel			rdr			llel			ldr			s2			lic			ric			lasi			rasi			rpsi			lpsi			rgt			lgt			rth1			rth2			rth3			rth4			rlfc			rmfc			rsh1			rsh2			rsh3			rsh4			rlmal			rcal			rtoe			rmt5			lth1			lth2			lth4			lth3			llfc			lmfc			lsh1			lsh2			lsh3			lsh4			llmal			lcal			ltoe			lmt5			SBIKE			LBIKE			RBIKE			
		X1	Y1	Z1	X2	Y2	Z2	X3	Y3	Z3	X4	Y4	Z4	X5	Y5	Z5	X6	Y6	Z6	X7	Y7	Z7	X8	Y8	Z8	X9	Y9	Z9	X10	Y10	Z10	X11	Y11	Z11	X12	Y12	Z12	X13	Y13	Z13	X14	Y14	Z14	X15	Y15	Z15	X16	Y16	Z16	X17	Y17	Z17	X18	Y18	Z18	X19	Y19	Z19	X20	Y20	Z20	X21	Y21	Z21	X22	Y22	Z22	X23	Y23	Z23	X24	Y24	Z24	X25	Y25	Z25	X26	Y26	Z26	X27	Y27	Z27	X28	Y28	Z28	X29	Y29	Z29	X30	Y30	Z30	X31	Y31	Z31	X32	Y32	Z32	X33	Y33	Z33	X34	Y34	Z34	X35	Y35	Z35	X36	Y36	Z36	X37	Y37	Z37	X38	Y38	Z38	X39	Y39	Z39	X40	Y40	Z40	X41	Y41	Z41	X42	Y42	Z42	X43	Y43	Z43	X44	Y44	Z44	X45	Y45	Z45	X46	Y46	Z46	X47	Y47	Z47	X48	Y48	Z48	
501	2.5050	749.235191	1415.713854	-122.618779	718.060233	1433.259184	-420.489835	727.366592	1478.472894	-271.411519	667.766150	1338.594398	-280.195398	575.623190	1140.492678	38.292099	726.339773	911.513036	-49.677521	540.045943	1131.157425	-497.782757	725.004463	920.925820	-401.370299	134.899405	1315.847960	-191.683874	266.706883	1361.358623	-344.849553	334.011969	1319.984149	-73.935124	294.647997	1283.152800	-341.597785	337.358758	1263.234046	-95.510747	179.544888	1345.438282	-146.034872	168.419593	1364.760589	-249.063160	258.535916	1188.398915	-31.853136	202.154940	1216.255533	-387.325971	323.210204	1042.447319	-56.168445	360.947696	965.927017	-77.294605	363.696162	880.604819	-77.083228	389.909034	976.354890	-97.672769	366.938989	740.389154	-105.415216	334.675061	736.566973	-205.744311	260.690715	643.837561	-71.899677	210.874114	571.538524	-87.880851	136.313495	528.228357	-76.483584	219.316116	563.060146	-127.658039	28.579973	438.023758	-70.537144	-46.439855	456.353687	-98.448115	122.201018	219.484764	-126.271861	51.032884	257.566843	-53.838698	273.436530	1111.174478	-402.471070	347.143942	1064.155901	-414.549395	374.448873	1087.795411	-409.514487	388.820347	985.150993	-416.207018	499.960583	835.338154	-393.279105	492.701644	818.647228	-301.153043	417.753933	708.167989	-414.322222	391.286885	628.929386	-392.069309	326.628131	566.802055	-397.485100	394.123488	632.322559	-350.213321	257.645379	468.534328	-392.811518	170.073934	426.447196	-361.796459	454.879356	375.394762	-355.917048	373.106782	358.912059	-422.429488	-258.442028	969.477301	-233.557546	-76.113658	83.486628	-437.677724	-82.814604	80.065215	-40.073444	
502	2.5100	748.858495	1416.025892	-121.308594	721.414083	1429.618299	-417.384799	728.911367	1475.414836	-272.227925	669.064089	1335.433835	-278.431002	576.186346	1140.070866	38.324566	726.159100	911.082751	-49.425729	537.849849	1128.839927	-497.940630	725.012260	920.899982	-401.564199	135.213532	1315.788142	-192.213184	267.060378	1358.624720	-345.697449	334.347652	1320.191117	-74.922497	294.628195	1280.933857	-342.282093	337.438556	1263.391589	-96.098937	179.898899	1345.543242	-146.763027	168.877134	1363.942318	-250.422126	259.258021	1188.978633	-31.632572	201.449235	1213.793832	-386.908838	325.829950	1044.040839	-56.012490	364.465725	967.869513	-77.321320	368.593149	882.541108	-76.764735	393.206715	978.559607	-97.699237	372.888721	742.313747	-105.203097	340.446004	738.559883	-205.565557	264.696829	647.896223	-71.775579	213.102526	577.114861	-87.652328	137.454814	535.975771	-76.418837	220.074460	567.659712	-128.370197	27.417154	447.848757	-70.577596	-47.632841	466.940058	-98.500251	120.385126	229.575621	-126.012210	49.026018	267.588477	-53.712696	270.934304	1107.467116	-401.970490	343.698786	1058.951507	-414.004490	371.494323	1082.061064	-409.184858	383.797693	979.090988	-415.108362	492.588685	828.208516	-391.761910	485.494596	811.067114	-300.729142	411.477160	700.658562	-413.656978	387.087779	620.626306	-391.773477	323.634218	557.208195	-397.063330	390.553495	623.496241	-349.899395	256.578554	456.384138	-392.383953	170.375497	413.535255	-361.441236	455.929016	365.909798	-355.626020	374.179746	348.705169	-422.388928	-258.461457	969.422445	-233.337066	-76.172202	83.398870	-437.596133	-82.828126	79.976857	-40.076121	
503	2.5150	748.624028	1417.074006	-120.142360	717.335480	1424.696598	-428.850417	729.743159	1472.048705	-272.207111	663.725420	1334.661706	-273.179221	576.854748	1139.954284	38.191581	726.098730	910.719671	-49.194691	536.061985	1126.530379	-498.105487	724.795169	920.424292	-401.298417	135.538649	1315.356242	-192.917799	267.518159	1355.632290	-346.808715	334.558760	1320.125822	-75.962147	294.656490	1278.431686	-343.020530	337.430196	1263.375408	-96.778070	180.167611	1345.416828	-147.717258	169.264618	1362.747859	-251.753437	259.893150	1189.520827	-31.520942	200.797683	1211.149768	-386.628870	328.197188	1045.314096	-55.672058	367.948028	969.528603	-76.945520	373.276906	884.457681	-76.039782	396.599245	980.527794	-98.050900	378.684917	744.235226	-104.832578	345.729381	741.184071	-205.391401	268.891077	652.084526	-71.539418	215.470779	582.588813	-87.487243	138.760851	543.415594	-76.278095	222.110345	572.838403	-128.263293	26.609083	458.088203	-70.503810	-48.236736	477.373474	-98.511878	119.151933	239.618424	-125.657361	47.642967	277.896902	-53.401571	268.524526	1103.698429	-401.424811	340.246030	1053.690710	-413.424716	368.515373	1076.256417	-408.830240	378.786072	972.973737	-413.931056	485.194838	821.269779	-390.289803	478.215230	803.291228	-299.539100	404.936558	693.198726	-412.644387	382.606241	612.820223	-391.745611	319.995981	548.053751	-396.490518	388.300095	614.273172	-350.082451	255.181254	444.242342	-391.974675	170.285753	401.011788	-360.465466	456.397216	356.244991	-356.085951	374.615743	338.256456	-421.838436	-258.464048	969.366154	-233.132583	-76.181394	83.360852	-437.602334	-82.857935	79.922121	-40.012780	
504	2.5200	748.323625	1418.527481	-119.266823	719.263916	1420.763648	-428.246036	730.886727	1469.424424	-272.370871	664.053595	1332.373395	-270.233700	577.671451	1140.216986	37.840621	725.417257	909.999083	-49.451324	534.766813	1124.328042	-498.330992	724.711393	919.726324	-401.037557	135.770414	1314.662218	-193.773578	268.127475	1352.466744	-348.357700	334.600218	1319.925050	-77.101394	294.820451	1275.815091	-344.173206	337.322853	1263.092676	-97.703695	180.366115	1344.968922	-148.990247	169.712830	1361.291482	-253.460901	260.321569	1189.873310	-31.510769	200.360961	1208.316235	-386.509931	330.286519	1045.975789	-56.072397	371.203535	971.151946	-76.211165	377.948312	886.010716	-74.838941	398.683477	981.984057	-98.233439	384.840223	746.054084	-104.322271	352.965375	741.946776	-204.779018	273.314322	656.161835	-71.172444	218.246913	587.922223	-87.175720	140.563472	550.772066	-76.051663	225.921169	578.554755	-127.055027	26.490243	468.187702	-70.491189	-48.339593	487.859035	-98.643830	118.614121	249.866526	-125.363555	46.951130	288.082990	-53.229410	266.155680	1099.810058	-400.970593	336.885412	1048.242285	-412.796211	365.508807	1070.483477	-408.534758	373.774600	966.829323	-412.666458	474.109416	816.556551	-393.925735	471.105673	796.460283	-297.145948	398.655447	685.757196	-411.774641	378.014634	604.885305	-391.611016	316.571687	539.254919	-396.049790	384.936271	605.469491	-349.875024	253.451556	432.157956	-391.587255	170.063446	389.216836	-359.665324	456.543819	346.167665	-356.198720	374.656661	327.979817	-421.522946	-258.441772	969.349700	-233.000749	-76.178705	83.362462	-437.564618	-82.860923	79.886117	-40.000465	
